<svg xmlns="http://www.w3.org/2000/svg" viewBox="0 0 687.16 88.38"><defs><style>.cls-1{isolation:isolate;}.cls-2{fill:#fff;}.cls-3{fill:#96a3b5;}.cls-4{fill:#007aff;}.cls-5{fill:#1ace00;}.cls-6{fill:#00f3ff;}.cls-7{opacity:0.25;mix-blend-mode:overlay;}.cls-8{fill:none;stroke:#000;stroke-width:0.25px;}</style></defs><title>Asset 1</title><g class="cls-1"><g id="Layer_2" data-name="Layer 2"><g id="Layer_1-2" data-name="Layer 1"><path class="cls-2" d="M153,60.4,119.51,39.55V60.4H106.81V3.15H151.7A60.7,60.7,0,0,1,162,3.91a17.23,17.23,0,0,1,7,2.68,11,11,0,0,1,4,5.29,24.31,24.31,0,0,1,1.26,8.47v3.94A21.42,21.42,0,0,1,173,32.47a11.19,11.19,0,0,1-4.16,5.12,18.36,18.36,0,0,1-7.1,2.64,59.55,59.55,0,0,1-10.17.75H141.45L175.07,60.4ZM161.54,21a11.33,11.33,0,0,0-.5-3.7,4.16,4.16,0,0,0-1.68-2.19,7.82,7.82,0,0,0-3.28-1,44.94,44.94,0,0,0-5.21-.25H119.51V31.31h31.36a43.87,43.87,0,0,0,5.17-.25,8.07,8.07,0,0,0,3.28-1A4.09,4.09,0,0,0,161,27.87a11.65,11.65,0,0,0,.5-3.78Z"/><path class="cls-2" d="M203,60.4a44.28,44.28,0,0,1-10.51-1A15.22,15.22,0,0,1,185.75,56a12.59,12.59,0,0,1-3.57-6,34.38,34.38,0,0,1-1.05-9.19V34.64a34.83,34.83,0,0,1,1.05-9.23,12.61,12.61,0,0,1,3.57-6.08A15.21,15.21,0,0,1,192.47,16a44.33,44.33,0,0,1,10.51-1h15.22a44.78,44.78,0,0,1,10.59,1,15,15,0,0,1,6.72,3.4,12.89,12.89,0,0,1,3.57,6.13,34.9,34.9,0,0,1,1.05,9.23v6A34.42,34.42,0,0,1,239.08,50a12.6,12.6,0,0,1-3.57,6,15.23,15.23,0,0,1-6.72,3.36,44.74,44.74,0,0,1-10.59,1ZM227.61,35a19.73,19.73,0,0,0-.46-4.69,5.44,5.44,0,0,0-1.68-2.89,7,7,0,0,0-3.4-1.42,33.77,33.77,0,0,0-5.55-.38H204.66a33,33,0,0,0-5.51.38,6.92,6.92,0,0,0-3.36,1.42,5.41,5.41,0,0,0-1.68,2.89,19.73,19.73,0,0,0-.46,4.69v5.36a19.2,19.2,0,0,0,.46,4.65,5.4,5.4,0,0,0,1.68,2.85,7.17,7.17,0,0,0,3.36,1.46,29.51,29.51,0,0,0,5.51.42h11.85a30.23,30.23,0,0,0,5.55-.42,7.23,7.23,0,0,0,3.4-1.46A5.42,5.42,0,0,0,227.15,45a19.2,19.2,0,0,0,.46-4.65Z"/><path class="cls-2" d="M271.24,60.4a44.17,44.17,0,0,1-10.51-1.05A15.2,15.2,0,0,1,254,56a12.62,12.62,0,0,1-3.57-6.05,34.48,34.48,0,0,1-1.05-9.2V.13h12.53V14.92h25.3a44.78,44.78,0,0,1,10.59,1,15.2,15.2,0,0,1,6.72,3.36,12.62,12.62,0,0,1,3.57,6.08,34.87,34.87,0,0,1,1.05,9.23v6.13A34.42,34.42,0,0,1,308.1,50a12.6,12.6,0,0,1-3.57,6,15.22,15.22,0,0,1-6.72,3.36,44.73,44.73,0,0,1-10.59,1ZM296.62,35a22.13,22.13,0,0,0-.42-4.77,5.38,5.38,0,0,0-1.51-2.85,6.11,6.11,0,0,0-3-1.38,26.27,26.27,0,0,0-4.87-.38H261.91V40.42a20.6,20.6,0,0,0,.42,4.57,5.6,5.6,0,0,0,1.51,2.85,6.11,6.11,0,0,0,3,1.46,22.9,22.9,0,0,0,4.83.42h15.13a23.52,23.52,0,0,0,4.88-.42,6.14,6.14,0,0,0,3-1.46A5.6,5.6,0,0,0,296.2,45a21.07,21.07,0,0,0,.42-4.65Z"/><path class="cls-2" d="M330.75,42.24v2.1a13.49,13.49,0,0,0,.34,3.36,3.65,3.65,0,0,0,1.22,2,5,5,0,0,0,2.35,1,22.18,22.18,0,0,0,3.66.25h14.79v9.5H338.32q-10.84,0-15.47-4.12t-4.62-13.2V32.57a31,31,0,0,1,1-8.36,10.94,10.94,0,0,1,3.36-5.46,14.73,14.73,0,0,1,6.35-3,44.92,44.92,0,0,1,10-.93h22a30,30,0,0,1,8.11.93,13.34,13.34,0,0,1,5.13,2.56,8.75,8.75,0,0,1,2.65,4,16,16,0,0,1,.76,5v15Zm34.3-14q0-2.27-1.13-3a7.63,7.63,0,0,0-4-.76H339.07a31.13,31.13,0,0,0-4,.21,5.17,5.17,0,0,0-2.56,1,4.17,4.17,0,0,0-1.39,2.19,14.16,14.16,0,0,0-.42,3.87v2.44h34.3Z"/><path class="cls-2" d="M386.23,60.4V34a28.4,28.4,0,0,1,1.18-8.74,13.36,13.36,0,0,1,3.74-5.93,15.86,15.86,0,0,1,6.6-3.4,38.13,38.13,0,0,1,9.84-1.09h8.15V25h-7.82a19.28,19.28,0,0,0-4.37.42,6,6,0,0,0-2.82,1.43,5.76,5.76,0,0,0-1.51,2.77,18,18,0,0,0-.46,4.46V60.4Z"/><path class="cls-2" d="M425.83,60.4V25h-6.39V14.84h6.39V2H438.6V14.84H453V25H438.6V60.4Z"/><path class="cls-2" d="M514,60.4a44.17,44.17,0,0,1-10.51-1.05A15.2,15.2,0,0,1,496.77,56a12.61,12.61,0,0,1-3.57-6.05,34.44,34.44,0,0,1-1.05-9.2V3.07h12.69V40.22a16.63,16.63,0,0,0,.46,4.25,6,6,0,0,0,1.64,2.86A6.88,6.88,0,0,0,510.1,49a20.63,20.63,0,0,0,5,.5h34V60.4Z"/><path class="cls-2" d="M567.89,42.24v2.1a13.49,13.49,0,0,0,.34,3.36,3.66,3.66,0,0,0,1.22,2,5,5,0,0,0,2.35,1,22.16,22.16,0,0,0,3.66.25h14.79v9.5H575.45q-10.84,0-15.47-4.12t-4.62-13.2V32.57a31,31,0,0,1,1-8.36,10.94,10.94,0,0,1,3.36-5.46,14.73,14.73,0,0,1,6.35-3,44.92,44.92,0,0,1,10-.93h22a30,30,0,0,1,8.11.93,13.33,13.33,0,0,1,5.13,2.56,8.75,8.75,0,0,1,2.65,4,16,16,0,0,1,.76,5v15Zm34.3-14q0-2.27-1.13-3a7.63,7.63,0,0,0-4-.76H576.21a31.14,31.14,0,0,0-4,.21,5.17,5.17,0,0,0-2.56,1,4.17,4.17,0,0,0-1.39,2.19,14.16,14.16,0,0,0-.42,3.87v2.44h34.3Z"/><path class="cls-2" d="M635.89,42.24v2.1a13.5,13.5,0,0,0,.34,3.36,3.66,3.66,0,0,0,1.22,2,5,5,0,0,0,2.35,1,22.17,22.17,0,0,0,3.66.25h14.79v9.5H643.46q-10.84,0-15.47-4.12t-4.62-13.2V32.57a31,31,0,0,1,1-8.36,10.94,10.94,0,0,1,3.36-5.46,14.73,14.73,0,0,1,6.35-3,44.93,44.93,0,0,1,10-.93h22a30,30,0,0,1,8.11.93,13.34,13.34,0,0,1,5.13,2.56,8.76,8.76,0,0,1,2.65,4,16,16,0,0,1,.76,5v15Zm34.3-14q0-2.27-1.13-3a7.62,7.62,0,0,0-4-.76H644.22a31.14,31.14,0,0,0-4,.21,5.17,5.17,0,0,0-2.56,1,4.16,4.16,0,0,0-1.39,2.19,14.16,14.16,0,0,0-.42,3.87v2.44h34.3Z"/><path class="cls-3" d="M106.67,70.45h2.81L111.78,84h0l2.3-13.57h2.94l2.35,13.65h0l2.27-13.65h2.76L121,87.91H117.8l-2.25-13.16h0l-2.23,13.16H110Z"/><path class="cls-3" d="M127.06,70.45h9.44v2.35h-6.65v4.84h6.26V80h-6.26v5.58h6.85v2.35h-9.64Z"/><path class="cls-3" d="M139.8,70.45h5c5.48,0,6.16,3.57,6.16,8.73s-.68,8.73-6.16,8.73h-5Zm2.79,15.36h2.3c2.3,0,3.25-1.52,3.25-6.63,0-4.92-.83-6.63-3.25-6.63h-2.3Z"/><path class="cls-3" d="M161.23,70.45h5c5.48,0,6.16,3.57,6.16,8.73s-.68,8.73-6.16,8.73h-5ZM164,85.81h2.3c2.3,0,3.25-1.52,3.25-6.63,0-4.92-.83-6.63-3.25-6.63H164Z"/><path class="cls-3" d="M175.8,70.45h9.44v2.35h-6.65v4.84h6.26V80h-6.26v5.58h6.85v2.35H175.8Z"/><path class="cls-3" d="M190.69,82.5v.44c0,2.13.93,3.21,2.86,3.21a2.48,2.48,0,0,0,2.64-2.54c0-1.83-.93-2.64-2.49-3.11l-1.91-.66c-2.54-1-3.64-2.3-3.64-4.79,0-3.18,2.15-4.94,5.43-4.94,4.48,0,4.94,2.79,4.94,4.6v.39h-2.79v-.37c0-1.59-.71-2.52-2.45-2.52a2.23,2.23,0,0,0-2.35,2.52c0,1.49.76,2.25,2.62,3l1.88.68c2.47.88,3.55,2.23,3.55,4.62,0,3.72-2.25,5.26-5.77,5.26-4.33,0-5.31-2.89-5.31-5.33V82.5Z"/><path class="cls-3" d="M202.09,70.45h2.79V87.91h-2.79Z"/><path class="cls-3" d="M217.25,85.88h0a3.65,3.65,0,0,1-3.81,2.37c-3.82,0-5.19-2.84-5.19-9.07S210,70.1,214,70.1a4.75,4.75,0,0,1,5.11,5v.32h-2.64V75c0-1.3-.54-2.84-2.45-2.84s-3,1.32-3,6.9.93,7,2.81,7c2.13,0,2.91-1.52,2.91-5.33h-2.94v-2.1h5.58v9.2h-2.1Z"/><path class="cls-3" d="M222.73,70.45h3.4l5.06,13h0v-13h2.64V87.91h-3.4l-5.06-13.35h0V87.91h-2.64Z"/><path class="cls-3" d="M237.74,70.45h9.44v2.35h-6.65v4.84h6.26V80h-6.26v5.58h6.85v2.35h-9.64Z"/><path class="cls-3" d="M250.48,70.45h6.16c2.45,0,4.43,1.22,4.43,4.5,0,2.25-1,4-2.91,4.28v0c1.74.17,2.64,1.13,2.74,3.57,0,1.13,0,2.5.1,3.55a1.81,1.81,0,0,0,.83,1.52h-3.15a2.93,2.93,0,0,1-.46-1.54c-.1-1.05-.07-2-.12-3.3,0-1.91-.64-2.74-2.54-2.74h-2.28v7.58h-2.79Zm5,7.78a2.57,2.57,0,0,0,2.79-2.84c0-1.86-.81-2.84-2.64-2.84h-2.37v5.67Z"/><path class="cls-4" d="M276.11,74.82a4.35,4.35,0,1,1-4.35,4.35A4.36,4.36,0,0,1,276.11,74.82Z"/><path class="cls-3" d="M300.13,85.88h0a3.66,3.66,0,0,1-3.82,2.37c-3.82,0-5.19-2.84-5.19-9.07s1.76-9.08,5.8-9.08a4.75,4.75,0,0,1,5.11,5v.32h-2.64V75c0-1.3-.54-2.84-2.45-2.84s-3,1.32-3,6.9.93,7,2.81,7c2.13,0,2.91-1.52,2.91-5.33h-2.94v-2.1h5.58v9.2h-2.1Z"/><path class="cls-3" d="M305.6,70.45h6.16c2.45,0,4.43,1.22,4.43,4.5,0,2.25-1,4-2.91,4.28v0c1.74.17,2.64,1.13,2.74,3.57,0,1.13,0,2.5.1,3.55a1.81,1.81,0,0,0,.83,1.52H313.8a2.93,2.93,0,0,1-.46-1.54c-.1-1.05-.07-2-.12-3.3,0-1.91-.64-2.74-2.54-2.74h-2.28v7.58H305.6Zm5,7.78a2.57,2.57,0,0,0,2.79-2.84c0-1.86-.81-2.84-2.64-2.84h-2.37v5.67Z"/><path class="cls-3" d="M323,70.45h3.57l4.6,17.46h-2.91l-1.08-4.28h-5.11L321,87.91H318Zm3.72,11-2-8.61h0L322.6,81.4Z"/><path class="cls-3" d="M333.38,70.45h5.53c3.35,0,4.82,2.1,4.82,5.09s-1.83,5.16-5.11,5.16h-2.45v7.22h-2.79Zm2.79,8.14h2c1.49,0,2.79-.81,2.79-3,0-1.88-.76-3-3-3h-1.79Z"/><path class="cls-3" d="M346.59,70.45h2.79v7h5.14v-7h2.79V87.91h-2.79V79.79h-5.14v8.12h-2.79Z"/><path class="cls-3" d="M361,70.45h2.79V87.91H361Z"/><path class="cls-3" d="M378.31,81.65V82c0,3.16-1.27,6.24-5.38,6.24-4.4,0-5.77-2.84-5.77-9.07s1.37-9.08,5.8-9.08c5,0,5.26,3.67,5.26,5.48v.32h-2.79v-.29c0-1.61-.49-3.47-2.5-3.4s-3,1.27-3,6.9.93,7,3,7c2.32,0,2.59-2.59,2.59-4.21v-.29Z"/><path class="cls-3" d="M388.09,70.45h5c5.48,0,6.16,3.57,6.16,8.73s-.68,8.73-6.16,8.73h-5Zm2.79,15.36h2.3c2.3,0,3.25-1.52,3.25-6.63,0-4.92-.83-6.63-3.25-6.63h-2.3Z"/><path class="cls-3" d="M402.66,70.45h9.44v2.35h-6.65v4.84h6.26V80h-6.26v5.58h6.85v2.35h-9.64Z"/><path class="cls-3" d="M417.55,82.5v.44c0,2.13.93,3.21,2.86,3.21a2.48,2.48,0,0,0,2.64-2.54c0-1.83-.93-2.64-2.49-3.11l-1.91-.66c-2.54-1-3.64-2.3-3.64-4.79,0-3.18,2.15-4.94,5.43-4.94,4.48,0,4.94,2.79,4.94,4.6v.39h-2.79v-.37c0-1.59-.71-2.52-2.45-2.52a2.23,2.23,0,0,0-2.35,2.52c0,1.49.76,2.25,2.62,3l1.88.68c2.47.88,3.55,2.23,3.55,4.62,0,3.72-2.25,5.26-5.77,5.26-4.33,0-5.31-2.89-5.31-5.33V82.5Z"/><path class="cls-3" d="M428.95,70.45h2.79V87.91h-2.79Z"/><path class="cls-3" d="M444.11,85.88h0a3.65,3.65,0,0,1-3.81,2.37c-3.82,0-5.19-2.84-5.19-9.07s1.76-9.08,5.8-9.08a4.75,4.75,0,0,1,5.11,5v.32h-2.64V75c0-1.3-.54-2.84-2.45-2.84s-3,1.32-3,6.9.93,7,2.81,7c2.13,0,2.91-1.52,2.91-5.33h-2.94v-2.1h5.58v9.2h-2.1Z"/><path class="cls-3" d="M449.59,70.45H453l5.06,13h0v-13h2.64V87.91h-3.4l-5.06-13.35h0V87.91h-2.64Z"/><path class="cls-3" d="M464.6,70.45H474v2.35h-6.65v4.84h6.26V80h-6.26v5.58h6.85v2.35H464.6Z"/><path class="cls-3" d="M477.34,70.45h6.16c2.45,0,4.43,1.22,4.43,4.5,0,2.25-1,4-2.91,4.28v0c1.74.17,2.64,1.13,2.74,3.57,0,1.13,0,2.5.1,3.55a1.81,1.81,0,0,0,.83,1.52h-3.15a2.93,2.93,0,0,1-.46-1.54c-.1-1.05-.07-2-.12-3.3,0-1.91-.64-2.74-2.54-2.74h-2.28v7.58h-2.79Zm5,7.78a2.57,2.57,0,0,0,2.79-2.84c0-1.86-.81-2.84-2.64-2.84h-2.37v5.67Z"/><path class="cls-4" d="M503,74.82a4.35,4.35,0,1,1-4.35,4.35A4.36,4.36,0,0,1,503,74.82Z"/><path class="cls-3" d="M516.15,70.45H519L521.26,84h0l2.3-13.57h2.94l2.35,13.65h0l2.28-13.65H534l-3.47,17.46h-3.23L525,74.75h0l-2.22,13.16h-3.23Z"/><path class="cls-3" d="M536.55,70.45H546v2.35h-6.65v4.84h6.26V80h-6.26v5.58h6.85v2.35h-9.64Z"/><path class="cls-3" d="M549.29,70.45h5.65c2.59,0,4.7,1.15,4.7,4.23,0,2.13-.83,3.42-2.57,4v0c1.91.34,3.13,1.49,3.13,4.45s-2.1,4.77-5.38,4.77h-5.53Zm5,7.36A2.46,2.46,0,0,0,556.84,75c0-2.08-1.25-2.49-2.81-2.49h-2v5.26Zm.56,8c1.66,0,2.57-1.08,2.57-3.08a2.66,2.66,0,0,0-2.74-3h-2.59v6Z"/><path class="cls-3" d="M570.24,70.45h5c5.48,0,6.16,3.57,6.16,8.73s-.69,8.73-6.16,8.73h-5ZM573,85.81h2.3c2.3,0,3.25-1.52,3.25-6.63,0-4.92-.83-6.63-3.25-6.63H573Z"/><path class="cls-3" d="M584.82,70.45h9.44v2.35h-6.65v4.84h6.26V80h-6.26v5.58h6.85v2.35h-9.64Z"/><path class="cls-3" d="M596,70.45h3l3,13.94h0l3.13-13.94h3l-4.4,17.46h-3.55Z"/><path class="cls-3" d="M610.3,70.45h9.44v2.35h-6.65v4.84h6.26V80h-6.26v5.58h6.85v2.35H610.3Z"/><path class="cls-3" d="M622.72,70.45h2.79V85.56h6.75v2.35h-9.54Z"/><path class="cls-3" d="M634.46,79.18c0-6.24,1.76-9.08,5.77-9.08S646,72.94,646,79.18s-1.76,9.07-5.77,9.07S634.46,85.41,634.46,79.18Zm8.76-.07c0-5.87-1.32-6.9-3-6.9s-3,1-3,6.9,1.32,7,3,7S643.22,85.12,643.22,79.1Z"/><path class="cls-3" d="M649.45,70.45H655c3.35,0,4.82,2.1,4.82,5.09s-1.83,5.16-5.11,5.16h-2.45v7.22h-2.79Zm2.79,8.14h2c1.49,0,2.79-.81,2.79-3,0-1.88-.76-3-3-3h-1.79Z"/><path class="cls-3" d="M662.65,70.45h9.44v2.35h-6.65v4.84h6.26V80h-6.26v5.58h6.85v2.35h-9.64Z"/><path class="cls-3" d="M675.4,70.45h6.16c2.45,0,4.43,1.22,4.43,4.5,0,2.25-1,4-2.91,4.28v0c1.74.17,2.64,1.13,2.74,3.57,0,1.13,0,2.5.1,3.55a1.81,1.81,0,0,0,.83,1.52h-3.16a3,3,0,0,1-.46-1.54c-.1-1.05-.07-2-.12-3.3,0-1.91-.64-2.74-2.54-2.74h-2.27v7.58H675.4Zm5,7.78a2.57,2.57,0,0,0,2.79-2.84c0-1.86-.81-2.84-2.64-2.84h-2.37v5.67Z"/><path class="cls-5" d="M.13,23.62a21,21,0,0,1,21-21h0l38.49.12V23.85l-5.07.07L31.36,24A10.29,10.29,0,0,0,21.12,34.32v53H.13Z"/><path class="cls-4" d="M89.41,66.63a21,21,0,0,1-21,21h0l-38.49-.12V66.4L35,66.33l23.18-.11A10.29,10.29,0,0,0,68.41,55.93V3h21Z"/><path class="cls-6" d="M55.87,58H29.82V35.85a3.67,3.67,0,0,1,3.67-3.67H59.54V54.33A3.67,3.67,0,0,1,55.87,58Z"/><g class="cls-7"><path class="cls-8" d="M153,60.4,119.51,39.55V60.4H106.81V3.15H151.7A60.7,60.7,0,0,1,162,3.91a17.23,17.23,0,0,1,7,2.68,11,11,0,0,1,4,5.29,24.31,24.31,0,0,1,1.26,8.47v3.94A21.42,21.42,0,0,1,173,32.47a11.19,11.19,0,0,1-4.16,5.12,18.36,18.36,0,0,1-7.1,2.64,59.55,59.55,0,0,1-10.17.75H141.45L175.07,60.4ZM161.54,21a11.33,11.33,0,0,0-.5-3.7,4.16,4.16,0,0,0-1.68-2.19,7.82,7.82,0,0,0-3.28-1,44.94,44.94,0,0,0-5.21-.25H119.51V31.31h31.36a43.87,43.87,0,0,0,5.17-.25,8.07,8.07,0,0,0,3.28-1A4.09,4.09,0,0,0,161,27.87a11.65,11.65,0,0,0,.5-3.78Z"/><path class="cls-8" d="M203,60.4a44.28,44.28,0,0,1-10.51-1A15.22,15.22,0,0,1,185.75,56a12.59,12.59,0,0,1-3.57-6,34.38,34.38,0,0,1-1.05-9.19V34.64a34.83,34.83,0,0,1,1.05-9.23,12.61,12.61,0,0,1,3.57-6.08A15.21,15.21,0,0,1,192.47,16a44.33,44.33,0,0,1,10.51-1h15.22a44.78,44.78,0,0,1,10.59,1,15,15,0,0,1,6.72,3.4,12.89,12.89,0,0,1,3.57,6.13,34.9,34.9,0,0,1,1.05,9.23v6A34.42,34.42,0,0,1,239.08,50a12.6,12.6,0,0,1-3.57,6,15.23,15.23,0,0,1-6.72,3.36,44.74,44.74,0,0,1-10.59,1ZM227.61,35a19.73,19.73,0,0,0-.46-4.69,5.44,5.44,0,0,0-1.68-2.89,7,7,0,0,0-3.4-1.42,33.77,33.77,0,0,0-5.55-.38H204.66a33,33,0,0,0-5.51.38,6.92,6.92,0,0,0-3.36,1.42,5.41,5.41,0,0,0-1.68,2.89,19.73,19.73,0,0,0-.46,4.69v5.36a19.2,19.2,0,0,0,.46,4.65,5.4,5.4,0,0,0,1.68,2.85,7.17,7.17,0,0,0,3.36,1.46,29.51,29.51,0,0,0,5.51.42h11.85a30.23,30.23,0,0,0,5.55-.42,7.23,7.23,0,0,0,3.4-1.46A5.42,5.42,0,0,0,227.15,45a19.2,19.2,0,0,0,.46-4.65Z"/><path class="cls-8" d="M271.24,60.4a44.17,44.17,0,0,1-10.51-1.05A15.2,15.2,0,0,1,254,56a12.62,12.62,0,0,1-3.57-6.05,34.48,34.48,0,0,1-1.05-9.2V.13h12.53V14.92h25.3a44.78,44.78,0,0,1,10.59,1,15.2,15.2,0,0,1,6.72,3.36,12.62,12.62,0,0,1,3.57,6.08,34.87,34.87,0,0,1,1.05,9.23v6.13A34.42,34.42,0,0,1,308.1,50a12.6,12.6,0,0,1-3.57,6,15.22,15.22,0,0,1-6.72,3.36,44.73,44.73,0,0,1-10.59,1ZM296.62,35a22.13,22.13,0,0,0-.42-4.77,5.38,5.38,0,0,0-1.51-2.85,6.11,6.11,0,0,0-3-1.38,26.27,26.27,0,0,0-4.87-.38H261.91V40.42a20.6,20.6,0,0,0,.42,4.57,5.6,5.6,0,0,0,1.51,2.85,6.11,6.11,0,0,0,3,1.46,22.9,22.9,0,0,0,4.83.42h15.13a23.52,23.52,0,0,0,4.88-.42,6.14,6.14,0,0,0,3-1.46A5.6,5.6,0,0,0,296.2,45a21.07,21.07,0,0,0,.42-4.65Z"/><path class="cls-8" d="M330.75,42.24v2.1a13.49,13.49,0,0,0,.34,3.36,3.65,3.65,0,0,0,1.22,2,5,5,0,0,0,2.35,1,22.18,22.18,0,0,0,3.66.25h14.79v9.5H338.32q-10.84,0-15.47-4.12t-4.62-13.2V32.57a31,31,0,0,1,1-8.36,10.94,10.94,0,0,1,3.36-5.46,14.73,14.73,0,0,1,6.35-3,44.92,44.92,0,0,1,10-.93h22a30,30,0,0,1,8.11.93,13.34,13.34,0,0,1,5.13,2.56,8.75,8.75,0,0,1,2.65,4,16,16,0,0,1,.76,5v15Zm34.3-14q0-2.27-1.13-3a7.63,7.63,0,0,0-4-.76H339.07a31.13,31.13,0,0,0-4,.21,5.17,5.17,0,0,0-2.56,1,4.17,4.17,0,0,0-1.39,2.19,14.16,14.16,0,0,0-.42,3.87v2.44h34.3Z"/><path class="cls-8" d="M386.23,60.4V34a28.4,28.4,0,0,1,1.18-8.74,13.36,13.36,0,0,1,3.74-5.93,15.86,15.86,0,0,1,6.6-3.4,38.13,38.13,0,0,1,9.84-1.09h8.15V25h-7.82a19.28,19.28,0,0,0-4.37.42,6,6,0,0,0-2.82,1.43,5.76,5.76,0,0,0-1.51,2.77,18,18,0,0,0-.46,4.46V60.4Z"/><path class="cls-8" d="M425.83,60.4V25h-6.39V14.84h6.39V2H438.6V14.84H453V25H438.6V60.4Z"/><path class="cls-8" d="M514,60.4a44.17,44.17,0,0,1-10.51-1.05A15.2,15.2,0,0,1,496.77,56a12.61,12.61,0,0,1-3.57-6.05,34.44,34.44,0,0,1-1.05-9.2V3.07h12.69V40.22a16.63,16.63,0,0,0,.46,4.25,6,6,0,0,0,1.64,2.86A6.88,6.88,0,0,0,510.1,49a20.63,20.63,0,0,0,5,.5h34V60.4Z"/><path class="cls-8" d="M567.89,42.24v2.1a13.49,13.49,0,0,0,.34,3.36,3.66,3.66,0,0,0,1.22,2,5,5,0,0,0,2.35,1,22.16,22.16,0,0,0,3.66.25h14.79v9.5H575.45q-10.84,0-15.47-4.12t-4.62-13.2V32.57a31,31,0,0,1,1-8.36,10.94,10.94,0,0,1,3.36-5.46,14.73,14.73,0,0,1,6.35-3,44.92,44.92,0,0,1,10-.93h22a30,30,0,0,1,8.11.93,13.33,13.33,0,0,1,5.13,2.56,8.75,8.75,0,0,1,2.65,4,16,16,0,0,1,.76,5v15Zm34.3-14q0-2.27-1.13-3a7.63,7.63,0,0,0-4-.76H576.21a31.14,31.14,0,0,0-4,.21,5.17,5.17,0,0,0-2.56,1,4.17,4.17,0,0,0-1.39,2.19,14.16,14.16,0,0,0-.42,3.87v2.44h34.3Z"/><path class="cls-8" d="M635.89,42.24v2.1a13.5,13.5,0,0,0,.34,3.36,3.66,3.66,0,0,0,1.22,2,5,5,0,0,0,2.35,1,22.17,22.17,0,0,0,3.66.25h14.79v9.5H643.46q-10.84,0-15.47-4.12t-4.62-13.2V32.57a31,31,0,0,1,1-8.36,10.94,10.94,0,0,1,3.36-5.46,14.73,14.73,0,0,1,6.35-3,44.93,44.93,0,0,1,10-.93h22a30,30,0,0,1,8.11.93,13.34,13.34,0,0,1,5.13,2.56,8.76,8.76,0,0,1,2.65,4,16,16,0,0,1,.76,5v15Zm34.3-14q0-2.27-1.13-3a7.62,7.62,0,0,0-4-.76H644.22a31.14,31.14,0,0,0-4,.21,5.17,5.17,0,0,0-2.56,1,4.16,4.16,0,0,0-1.39,2.19,14.16,14.16,0,0,0-.42,3.87v2.44h34.3Z"/><path class="cls-8" d="M153,60.4,119.51,39.55V60.4H106.81V3.15H151.7A60.7,60.7,0,0,1,162,3.91a17.23,17.23,0,0,1,7,2.68,11,11,0,0,1,4,5.29,24.31,24.31,0,0,1,1.26,8.47v3.94A21.42,21.42,0,0,1,173,32.47a11.19,11.19,0,0,1-4.16,5.12,18.36,18.36,0,0,1-7.1,2.64,59.55,59.55,0,0,1-10.17.75H141.45L175.07,60.4ZM161.54,21a11.33,11.33,0,0,0-.5-3.7,4.16,4.16,0,0,0-1.68-2.19,7.82,7.82,0,0,0-3.28-1,44.94,44.94,0,0,0-5.21-.25H119.51V31.31h31.36a43.87,43.87,0,0,0,5.17-.25,8.07,8.07,0,0,0,3.28-1A4.09,4.09,0,0,0,161,27.87a11.65,11.65,0,0,0,.5-3.78Z"/><path class="cls-8" d="M203,60.4a44.28,44.28,0,0,1-10.51-1A15.22,15.22,0,0,1,185.75,56a12.59,12.59,0,0,1-3.57-6,34.38,34.38,0,0,1-1.05-9.19V34.64a34.83,34.83,0,0,1,1.05-9.23,12.61,12.61,0,0,1,3.57-6.08A15.21,15.21,0,0,1,192.47,16a44.33,44.33,0,0,1,10.51-1h15.22a44.78,44.78,0,0,1,10.59,1,15,15,0,0,1,6.72,3.4,12.89,12.89,0,0,1,3.57,6.13,34.9,34.9,0,0,1,1.05,9.23v6A34.42,34.42,0,0,1,239.08,50a12.6,12.6,0,0,1-3.57,6,15.23,15.23,0,0,1-6.72,3.36,44.74,44.74,0,0,1-10.59,1ZM227.61,35a19.73,19.73,0,0,0-.46-4.69,5.44,5.44,0,0,0-1.68-2.89,7,7,0,0,0-3.4-1.42,33.77,33.77,0,0,0-5.55-.38H204.66a33,33,0,0,0-5.51.38,6.92,6.92,0,0,0-3.36,1.42,5.41,5.41,0,0,0-1.68,2.89,19.73,19.73,0,0,0-.46,4.69v5.36a19.2,19.2,0,0,0,.46,4.65,5.4,5.4,0,0,0,1.68,2.85,7.17,7.17,0,0,0,3.36,1.46,29.51,29.51,0,0,0,5.51.42h11.85a30.23,30.23,0,0,0,5.55-.42,7.23,7.23,0,0,0,3.4-1.46A5.42,5.42,0,0,0,227.15,45a19.2,19.2,0,0,0,.46-4.65Z"/><path class="cls-8" d="M271.24,60.4a44.17,44.17,0,0,1-10.51-1.05A15.2,15.2,0,0,1,254,56a12.62,12.62,0,0,1-3.57-6.05,34.48,34.48,0,0,1-1.05-9.2V.13h12.53V14.92h25.3a44.78,44.78,0,0,1,10.59,1,15.2,15.2,0,0,1,6.72,3.36,12.62,12.62,0,0,1,3.57,6.08,34.87,34.87,0,0,1,1.05,9.23v6.13A34.42,34.42,0,0,1,308.1,50a12.6,12.6,0,0,1-3.57,6,15.22,15.22,0,0,1-6.72,3.36,44.73,44.73,0,0,1-10.59,1ZM296.62,35a22.13,22.13,0,0,0-.42-4.77,5.38,5.38,0,0,0-1.51-2.85,6.11,6.11,0,0,0-3-1.38,26.27,26.27,0,0,0-4.87-.38H261.91V40.42a20.6,20.6,0,0,0,.42,4.57,5.6,5.6,0,0,0,1.51,2.85,6.11,6.11,0,0,0,3,1.46,22.9,22.9,0,0,0,4.83.42h15.13a23.52,23.52,0,0,0,4.88-.42,6.14,6.14,0,0,0,3-1.46A5.6,5.6,0,0,0,296.2,45a21.07,21.07,0,0,0,.42-4.65Z"/><path class="cls-8" d="M330.75,42.24v2.1a13.49,13.49,0,0,0,.34,3.36,3.65,3.65,0,0,0,1.22,2,5,5,0,0,0,2.35,1,22.18,22.18,0,0,0,3.66.25h14.79v9.5H338.32q-10.84,0-15.47-4.12t-4.62-13.2V32.57a31,31,0,0,1,1-8.36,10.94,10.94,0,0,1,3.36-5.46,14.73,14.73,0,0,1,6.35-3,44.92,44.92,0,0,1,10-.93h22a30,30,0,0,1,8.11.93,13.34,13.34,0,0,1,5.13,2.56,8.75,8.75,0,0,1,2.65,4,16,16,0,0,1,.76,5v15Zm34.3-14q0-2.27-1.13-3a7.63,7.63,0,0,0-4-.76H339.07a31.13,31.13,0,0,0-4,.21,5.17,5.17,0,0,0-2.56,1,4.17,4.17,0,0,0-1.39,2.19,14.16,14.16,0,0,0-.42,3.87v2.44h34.3Z"/><path class="cls-8" d="M386.23,60.4V34a28.4,28.4,0,0,1,1.18-8.74,13.36,13.36,0,0,1,3.74-5.93,15.86,15.86,0,0,1,6.6-3.4,38.13,38.13,0,0,1,9.84-1.09h8.15V25h-7.82a19.28,19.28,0,0,0-4.37.42,6,6,0,0,0-2.82,1.43,5.76,5.76,0,0,0-1.51,2.77,18,18,0,0,0-.46,4.46V60.4Z"/><path class="cls-8" d="M425.83,60.4V25h-6.39V14.84h6.39V2H438.6V14.84H453V25H438.6V60.4Z"/><path class="cls-8" d="M514,60.4a44.17,44.17,0,0,1-10.51-1.05A15.2,15.2,0,0,1,496.77,56a12.61,12.61,0,0,1-3.57-6.05,34.44,34.44,0,0,1-1.05-9.2V3.07h12.69V40.22a16.63,16.63,0,0,0,.46,4.25,6,6,0,0,0,1.64,2.86A6.88,6.88,0,0,0,510.1,49a20.63,20.63,0,0,0,5,.5h34V60.4Z"/><path class="cls-8" d="M567.89,42.24v2.1a13.49,13.49,0,0,0,.34,3.36,3.66,3.66,0,0,0,1.22,2,5,5,0,0,0,2.35,1,22.16,22.16,0,0,0,3.66.25h14.79v9.5H575.45q-10.84,0-15.47-4.12t-4.62-13.2V32.57a31,31,0,0,1,1-8.36,10.94,10.94,0,0,1,3.36-5.46,14.73,14.73,0,0,1,6.35-3,44.92,44.92,0,0,1,10-.93h22a30,30,0,0,1,8.11.93,13.33,13.33,0,0,1,5.13,2.56,8.75,8.75,0,0,1,2.65,4,16,16,0,0,1,.76,5v15Zm34.3-14q0-2.27-1.13-3a7.63,7.63,0,0,0-4-.76H576.21a31.14,31.14,0,0,0-4,.21,5.17,5.17,0,0,0-2.56,1,4.17,4.17,0,0,0-1.39,2.19,14.16,14.16,0,0,0-.42,3.87v2.44h34.3Z"/><path class="cls-8" d="M635.89,42.24v2.1a13.5,13.5,0,0,0,.34,3.36,3.66,3.66,0,0,0,1.22,2,5,5,0,0,0,2.35,1,22.17,22.17,0,0,0,3.66.25h14.79v9.5H643.46q-10.84,0-15.47-4.12t-4.62-13.2V32.57a31,31,0,0,1,1-8.36,10.94,10.94,0,0,1,3.36-5.46,14.73,14.73,0,0,1,6.35-3,44.93,44.93,0,0,1,10-.93h22a30,30,0,0,1,8.11.93,13.34,13.34,0,0,1,5.13,2.56,8.76,8.76,0,0,1,2.65,4,16,16,0,0,1,.76,5v15Zm34.3-14q0-2.27-1.13-3a7.62,7.62,0,0,0-4-.76H644.22a31.14,31.14,0,0,0-4,.21,5.17,5.17,0,0,0-2.56,1,4.16,4.16,0,0,0-1.39,2.19,14.16,14.16,0,0,0-.42,3.87v2.44h34.3Z"/><path class="cls-8" d="M153,60.4,119.51,39.55V60.4H106.81V3.15H151.7A60.7,60.7,0,0,1,162,3.91a17.23,17.23,0,0,1,7,2.68,11,11,0,0,1,4,5.29,24.31,24.31,0,0,1,1.26,8.47v3.94A21.42,21.42,0,0,1,173,32.47a11.19,11.19,0,0,1-4.16,5.12,18.36,18.36,0,0,1-7.1,2.64,59.55,59.55,0,0,1-10.17.75H141.45L175.07,60.4ZM161.54,21a11.33,11.33,0,0,0-.5-3.7,4.16,4.16,0,0,0-1.68-2.19,7.82,7.82,0,0,0-3.28-1,44.94,44.94,0,0,0-5.21-.25H119.51V31.31h31.36a43.87,43.87,0,0,0,5.17-.25,8.07,8.07,0,0,0,3.28-1A4.09,4.09,0,0,0,161,27.87a11.65,11.65,0,0,0,.5-3.78Z"/><path class="cls-8" d="M203,60.4a44.28,44.28,0,0,1-10.51-1A15.22,15.22,0,0,1,185.75,56a12.59,12.59,0,0,1-3.57-6,34.38,34.38,0,0,1-1.05-9.19V34.64a34.83,34.83,0,0,1,1.05-9.23,12.61,12.61,0,0,1,3.57-6.08A15.21,15.21,0,0,1,192.47,16a44.33,44.33,0,0,1,10.51-1h15.22a44.78,44.78,0,0,1,10.59,1,15,15,0,0,1,6.72,3.4,12.89,12.89,0,0,1,3.57,6.13,34.9,34.9,0,0,1,1.05,9.23v6A34.42,34.42,0,0,1,239.08,50a12.6,12.6,0,0,1-3.57,6,15.23,15.23,0,0,1-6.72,3.36,44.74,44.74,0,0,1-10.59,1ZM227.61,35a19.73,19.73,0,0,0-.46-4.69,5.44,5.44,0,0,0-1.68-2.89,7,7,0,0,0-3.4-1.42,33.77,33.77,0,0,0-5.55-.38H204.66a33,33,0,0,0-5.51.38,6.92,6.92,0,0,0-3.36,1.42,5.41,5.41,0,0,0-1.68,2.89,19.73,19.73,0,0,0-.46,4.69v5.36a19.2,19.2,0,0,0,.46,4.65,5.4,5.4,0,0,0,1.68,2.85,7.17,7.17,0,0,0,3.36,1.46,29.51,29.51,0,0,0,5.51.42h11.85a30.23,30.23,0,0,0,5.55-.42,7.23,7.23,0,0,0,3.4-1.46A5.42,5.42,0,0,0,227.15,45a19.2,19.2,0,0,0,.46-4.65Z"/><path class="cls-8" d="M271.24,60.4a44.17,44.17,0,0,1-10.51-1.05A15.2,15.2,0,0,1,254,56a12.62,12.62,0,0,1-3.57-6.05,34.48,34.48,0,0,1-1.05-9.2V.13h12.53V14.92h25.3a44.78,44.78,0,0,1,10.59,1,15.2,15.2,0,0,1,6.72,3.36,12.62,12.62,0,0,1,3.57,6.08,34.87,34.87,0,0,1,1.05,9.23v6.13A34.42,34.42,0,0,1,308.1,50a12.6,12.6,0,0,1-3.57,6,15.22,15.22,0,0,1-6.72,3.36,44.73,44.73,0,0,1-10.59,1ZM296.62,35a22.13,22.13,0,0,0-.42-4.77,5.38,5.38,0,0,0-1.51-2.85,6.11,6.11,0,0,0-3-1.38,26.27,26.27,0,0,0-4.87-.38H261.91V40.42a20.6,20.6,0,0,0,.42,4.57,5.6,5.6,0,0,0,1.51,2.85,6.11,6.11,0,0,0,3,1.46,22.9,22.9,0,0,0,4.83.42h15.13a23.52,23.52,0,0,0,4.88-.42,6.14,6.14,0,0,0,3-1.46A5.6,5.6,0,0,0,296.2,45a21.07,21.07,0,0,0,.42-4.65Z"/><path class="cls-8" d="M330.75,42.24v2.1a13.49,13.49,0,0,0,.34,3.36,3.65,3.65,0,0,0,1.22,2,5,5,0,0,0,2.35,1,22.18,22.18,0,0,0,3.66.25h14.79v9.5H338.32q-10.84,0-15.47-4.12t-4.62-13.2V32.57a31,31,0,0,1,1-8.36,10.94,10.94,0,0,1,3.36-5.46,14.73,14.73,0,0,1,6.35-3,44.92,44.92,0,0,1,10-.93h22a30,30,0,0,1,8.11.93,13.34,13.34,0,0,1,5.13,2.56,8.75,8.75,0,0,1,2.65,4,16,16,0,0,1,.76,5v15Zm34.3-14q0-2.27-1.13-3a7.63,7.63,0,0,0-4-.76H339.07a31.13,31.13,0,0,0-4,.21,5.17,5.17,0,0,0-2.56,1,4.17,4.17,0,0,0-1.39,2.19,14.16,14.16,0,0,0-.42,3.87v2.44h34.3Z"/><path class="cls-8" d="M386.23,60.4V34a28.4,28.4,0,0,1,1.18-8.74,13.36,13.36,0,0,1,3.74-5.93,15.86,15.86,0,0,1,6.6-3.4,38.13,38.13,0,0,1,9.84-1.09h8.15V25h-7.82a19.28,19.28,0,0,0-4.37.42,6,6,0,0,0-2.82,1.43,5.76,5.76,0,0,0-1.51,2.77,18,18,0,0,0-.46,4.46V60.4Z"/><path class="cls-8" d="M425.83,60.4V25h-6.39V14.84h6.39V2H438.6V14.84H453V25H438.6V60.4Z"/><path class="cls-8" d="M514,60.4a44.17,44.17,0,0,1-10.51-1.05A15.2,15.2,0,0,1,496.77,56a12.61,12.61,0,0,1-3.57-6.05,34.44,34.44,0,0,1-1.05-9.2V3.07h12.69V40.22a16.63,16.63,0,0,0,.46,4.25,6,6,0,0,0,1.64,2.86A6.88,6.88,0,0,0,510.1,49a20.63,20.63,0,0,0,5,.5h34V60.4Z"/><path class="cls-8" d="M567.89,42.24v2.1a13.49,13.49,0,0,0,.34,3.36,3.66,3.66,0,0,0,1.22,2,5,5,0,0,0,2.35,1,22.16,22.16,0,0,0,3.66.25h14.79v9.5H575.45q-10.84,0-15.47-4.12t-4.62-13.2V32.57a31,31,0,0,1,1-8.36,10.94,10.94,0,0,1,3.36-5.46,14.73,14.73,0,0,1,6.35-3,44.92,44.92,0,0,1,10-.93h22a30,30,0,0,1,8.11.93,13.33,13.33,0,0,1,5.13,2.56,8.75,8.75,0,0,1,2.65,4,16,16,0,0,1,.76,5v15Zm34.3-14q0-2.27-1.13-3a7.63,7.63,0,0,0-4-.76H576.21a31.14,31.14,0,0,0-4,.21,5.17,5.17,0,0,0-2.56,1,4.17,4.17,0,0,0-1.39,2.19,14.16,14.16,0,0,0-.42,3.87v2.44h34.3Z"/><path class="cls-8" d="M635.89,42.24v2.1a13.5,13.5,0,0,0,.34,3.36,3.66,3.66,0,0,0,1.22,2,5,5,0,0,0,2.35,1,22.17,22.17,0,0,0,3.66.25h14.79v9.5H643.46q-10.84,0-15.47-4.12t-4.62-13.2V32.57a31,31,0,0,1,1-8.36,10.94,10.94,0,0,1,3.36-5.46,14.73,14.73,0,0,1,6.35-3,44.93,44.93,0,0,1,10-.93h22a30,30,0,0,1,8.11.93,13.34,13.34,0,0,1,5.13,2.56,8.76,8.76,0,0,1,2.65,4,16,16,0,0,1,.76,5v15Zm34.3-14q0-2.27-1.13-3a7.62,7.62,0,0,0-4-.76H644.22a31.14,31.14,0,0,0-4,.21,5.17,5.17,0,0,0-2.56,1,4.16,4.16,0,0,0-1.39,2.19,14.16,14.16,0,0,0-.42,3.87v2.44h34.3Z"/><path class="cls-8" d="M106.67,70.45h2.81L111.78,84h0l2.3-13.57h2.94l2.35,13.65h0l2.27-13.65h2.76L121,87.91H117.8l-2.25-13.16h0l-2.23,13.16H110Z"/><path class="cls-8" d="M127.06,70.45h9.44v2.35h-6.65v4.84h6.26V80h-6.26v5.58h6.85v2.35h-9.64Z"/><path class="cls-8" d="M139.8,70.45h5c5.48,0,6.16,3.57,6.16,8.73s-.68,8.73-6.16,8.73h-5Zm2.79,15.36h2.3c2.3,0,3.25-1.52,3.25-6.63,0-4.92-.83-6.63-3.25-6.63h-2.3Z"/><path class="cls-8" d="M161.23,70.45h5c5.48,0,6.16,3.57,6.16,8.73s-.68,8.73-6.16,8.73h-5ZM164,85.81h2.3c2.3,0,3.25-1.52,3.25-6.63,0-4.92-.83-6.63-3.25-6.63H164Z"/><path class="cls-8" d="M175.8,70.45h9.44v2.35h-6.65v4.84h6.26V80h-6.26v5.58h6.85v2.35H175.8Z"/><path class="cls-8" d="M190.69,82.5v.44c0,2.13.93,3.21,2.86,3.21a2.48,2.48,0,0,0,2.64-2.54c0-1.83-.93-2.64-2.49-3.11l-1.91-.66c-2.54-1-3.64-2.3-3.64-4.79,0-3.18,2.15-4.94,5.43-4.94,4.48,0,4.94,2.79,4.94,4.6v.39h-2.79v-.37c0-1.59-.71-2.52-2.45-2.52a2.23,2.23,0,0,0-2.35,2.52c0,1.49.76,2.25,2.62,3l1.88.68c2.47.88,3.55,2.23,3.55,4.62,0,3.72-2.25,5.26-5.77,5.26-4.33,0-5.31-2.89-5.31-5.33V82.5Z"/><path class="cls-8" d="M202.09,70.45h2.79V87.91h-2.79Z"/><path class="cls-8" d="M217.25,85.88h0a3.65,3.65,0,0,1-3.81,2.37c-3.82,0-5.19-2.84-5.19-9.07S210,70.1,214,70.1a4.75,4.75,0,0,1,5.11,5v.32h-2.64V75c0-1.3-.54-2.84-2.45-2.84s-3,1.32-3,6.9.93,7,2.81,7c2.13,0,2.91-1.52,2.91-5.33h-2.94v-2.1h5.58v9.2h-2.1Z"/><path class="cls-8" d="M222.73,70.45h3.4l5.06,13h0v-13h2.64V87.91h-3.4l-5.06-13.35h0V87.91h-2.64Z"/><path class="cls-8" d="M237.74,70.45h9.44v2.35h-6.65v4.84h6.26V80h-6.26v5.58h6.85v2.35h-9.64Z"/><path class="cls-8" d="M250.48,70.45h6.16c2.45,0,4.43,1.22,4.43,4.5,0,2.25-1,4-2.91,4.28v0c1.74.17,2.64,1.13,2.74,3.57,0,1.13,0,2.5.1,3.55a1.81,1.81,0,0,0,.83,1.52h-3.15a2.93,2.93,0,0,1-.46-1.54c-.1-1.05-.07-2-.12-3.3,0-1.91-.64-2.74-2.54-2.74h-2.28v7.58h-2.79Zm5,7.78a2.57,2.57,0,0,0,2.79-2.84c0-1.86-.81-2.84-2.64-2.84h-2.37v5.67Z"/><path class="cls-8" d="M276.11,74.82a4.35,4.35,0,1,1-4.35,4.35A4.36,4.36,0,0,1,276.11,74.82Z"/><path class="cls-8" d="M300.13,85.88h0a3.66,3.66,0,0,1-3.82,2.37c-3.82,0-5.19-2.84-5.19-9.07s1.76-9.08,5.8-9.08a4.75,4.75,0,0,1,5.11,5v.32h-2.64V75c0-1.3-.54-2.84-2.45-2.84s-3,1.32-3,6.9.93,7,2.81,7c2.13,0,2.91-1.52,2.91-5.33h-2.94v-2.1h5.58v9.2h-2.1Z"/><path class="cls-8" d="M305.6,70.45h6.16c2.45,0,4.43,1.22,4.43,4.5,0,2.25-1,4-2.91,4.28v0c1.74.17,2.64,1.13,2.74,3.57,0,1.13,0,2.5.1,3.55a1.81,1.81,0,0,0,.83,1.52H313.8a2.93,2.93,0,0,1-.46-1.54c-.1-1.05-.07-2-.12-3.3,0-1.91-.64-2.74-2.54-2.74h-2.28v7.58H305.6Zm5,7.78a2.57,2.57,0,0,0,2.79-2.84c0-1.86-.81-2.84-2.64-2.84h-2.37v5.67Z"/><path class="cls-8" d="M323,70.45h3.57l4.6,17.46h-2.91l-1.08-4.28h-5.11L321,87.91H318Zm3.72,11-2-8.61h0L322.6,81.4Z"/><path class="cls-8" d="M333.38,70.45h5.53c3.35,0,4.82,2.1,4.82,5.09s-1.83,5.16-5.11,5.16h-2.45v7.22h-2.79Zm2.79,8.14h2c1.49,0,2.79-.81,2.79-3,0-1.88-.76-3-3-3h-1.79Z"/><path class="cls-8" d="M346.59,70.45h2.79v7h5.14v-7h2.79V87.91h-2.79V79.79h-5.14v8.12h-2.79Z"/><path class="cls-8" d="M361,70.45h2.79V87.91H361Z"/><path class="cls-8" d="M378.31,81.65V82c0,3.16-1.27,6.24-5.38,6.24-4.4,0-5.77-2.84-5.77-9.07s1.37-9.08,5.8-9.08c5,0,5.26,3.67,5.26,5.48v.32h-2.79v-.29c0-1.61-.49-3.47-2.5-3.4s-3,1.27-3,6.9.93,7,3,7c2.32,0,2.59-2.59,2.59-4.21v-.29Z"/><path class="cls-8" d="M388.09,70.45h5c5.48,0,6.16,3.57,6.16,8.73s-.68,8.73-6.16,8.73h-5Zm2.79,15.36h2.3c2.3,0,3.25-1.52,3.25-6.63,0-4.92-.83-6.63-3.25-6.63h-2.3Z"/><path class="cls-8" d="M402.66,70.45h9.44v2.35h-6.65v4.84h6.26V80h-6.26v5.58h6.85v2.35h-9.64Z"/><path class="cls-8" d="M417.55,82.5v.44c0,2.13.93,3.21,2.86,3.21a2.48,2.48,0,0,0,2.64-2.54c0-1.83-.93-2.64-2.49-3.11l-1.91-.66c-2.54-1-3.64-2.3-3.64-4.79,0-3.18,2.15-4.94,5.43-4.94,4.48,0,4.94,2.79,4.94,4.6v.39h-2.79v-.37c0-1.59-.71-2.52-2.45-2.52a2.23,2.23,0,0,0-2.35,2.52c0,1.49.76,2.25,2.62,3l1.88.68c2.47.88,3.55,2.23,3.55,4.62,0,3.72-2.25,5.26-5.77,5.26-4.33,0-5.31-2.89-5.31-5.33V82.5Z"/><path class="cls-8" d="M428.95,70.45h2.79V87.91h-2.79Z"/><path class="cls-8" d="M444.11,85.88h0a3.65,3.65,0,0,1-3.81,2.37c-3.82,0-5.19-2.84-5.19-9.07s1.76-9.08,5.8-9.08a4.75,4.75,0,0,1,5.11,5v.32h-2.64V75c0-1.3-.54-2.84-2.45-2.84s-3,1.32-3,6.9.93,7,2.81,7c2.13,0,2.91-1.52,2.91-5.33h-2.94v-2.1h5.58v9.2h-2.1Z"/><path class="cls-8" d="M449.59,70.45H453l5.06,13h0v-13h2.64V87.91h-3.4l-5.06-13.35h0V87.91h-2.64Z"/><path class="cls-8" d="M464.6,70.45H474v2.35h-6.65v4.84h6.26V80h-6.26v5.58h6.85v2.35H464.6Z"/><path class="cls-8" d="M477.34,70.45h6.16c2.45,0,4.43,1.22,4.43,4.5,0,2.25-1,4-2.91,4.28v0c1.74.17,2.64,1.13,2.74,3.57,0,1.13,0,2.5.1,3.55a1.81,1.81,0,0,0,.83,1.52h-3.15a2.93,2.93,0,0,1-.46-1.54c-.1-1.05-.07-2-.12-3.3,0-1.91-.64-2.74-2.54-2.74h-2.28v7.58h-2.79Zm5,7.78a2.57,2.57,0,0,0,2.79-2.84c0-1.86-.81-2.84-2.64-2.84h-2.37v5.67Z"/><path class="cls-8" d="M503,74.82a4.35,4.35,0,1,1-4.35,4.35A4.36,4.36,0,0,1,503,74.82Z"/><path class="cls-8" d="M516.15,70.45H519L521.26,84h0l2.3-13.57h2.94l2.35,13.65h0l2.28-13.65H534l-3.47,17.46h-3.23L525,74.75h0l-2.22,13.16h-3.23Z"/><path class="cls-8" d="M536.55,70.45H546v2.35h-6.65v4.84h6.26V80h-6.26v5.58h6.85v2.35h-9.64Z"/><path class="cls-8" d="M549.29,70.45h5.65c2.59,0,4.7,1.15,4.7,4.23,0,2.13-.83,3.42-2.57,4v0c1.91.34,3.13,1.49,3.13,4.45s-2.1,4.77-5.38,4.77h-5.53Zm5,7.36A2.46,2.46,0,0,0,556.84,75c0-2.08-1.25-2.49-2.81-2.49h-2v5.26Zm.56,8c1.66,0,2.57-1.08,2.57-3.08a2.66,2.66,0,0,0-2.74-3h-2.59v6Z"/><path class="cls-8" d="M570.24,70.45h5c5.48,0,6.16,3.57,6.16,8.73s-.69,8.73-6.16,8.73h-5ZM573,85.81h2.3c2.3,0,3.25-1.52,3.25-6.63,0-4.92-.83-6.63-3.25-6.63H573Z"/><path class="cls-8" d="M584.82,70.45h9.44v2.35h-6.65v4.84h6.26V80h-6.26v5.58h6.85v2.35h-9.64Z"/><path class="cls-8" d="M596,70.45h3l3,13.94h0l3.13-13.94h3l-4.4,17.46h-3.55Z"/><path class="cls-8" d="M610.3,70.45h9.44v2.35h-6.65v4.84h6.26V80h-6.26v5.58h6.85v2.35H610.3Z"/><path class="cls-8" d="M622.72,70.45h2.79V85.56h6.75v2.35h-9.54Z"/><path class="cls-8" d="M634.46,79.18c0-6.24,1.76-9.08,5.77-9.08S646,72.94,646,79.18s-1.76,9.07-5.77,9.07S634.46,85.41,634.46,79.18Zm8.76-.07c0-5.87-1.32-6.9-3-6.9s-3,1-3,6.9,1.32,7,3,7S643.22,85.12,643.22,79.1Z"/><path class="cls-8" d="M649.45,70.45H655c3.35,0,4.82,2.1,4.82,5.09s-1.83,5.16-5.11,5.16h-2.45v7.22h-2.79Zm2.79,8.14h2c1.49,0,2.79-.81,2.79-3,0-1.88-.76-3-3-3h-1.79Z"/><path class="cls-8" d="M662.65,70.45h9.44v2.35h-6.65v4.84h6.26V80h-6.26v5.58h6.85v2.35h-9.64Z"/><path class="cls-8" d="M675.4,70.45h6.16c2.45,0,4.43,1.22,4.43,4.5,0,2.25-1,4-2.91,4.28v0c1.74.17,2.64,1.13,2.74,3.57,0,1.13,0,2.5.1,3.55a1.81,1.81,0,0,0,.83,1.52h-3.16a3,3,0,0,1-.46-1.54c-.1-1.05-.07-2-.12-3.3,0-1.91-.64-2.74-2.54-2.74h-2.27v7.58H675.4Zm5,7.78a2.57,2.57,0,0,0,2.79-2.84c0-1.86-.81-2.84-2.64-2.84h-2.37v5.67Z"/><path class="cls-8" d="M106.67,70.45h2.81L111.78,84h0l2.3-13.57h2.94l2.35,13.65h0l2.27-13.65h2.76L121,87.91H117.8l-2.25-13.16h0l-2.23,13.16H110Z"/><path class="cls-8" d="M127.06,70.45h9.44v2.35h-6.65v4.84h6.26V80h-6.26v5.58h6.85v2.35h-9.64Z"/><path class="cls-8" d="M139.8,70.45h5c5.48,0,6.16,3.57,6.16,8.73s-.68,8.73-6.16,8.73h-5Zm2.79,15.36h2.3c2.3,0,3.25-1.52,3.25-6.63,0-4.92-.83-6.63-3.25-6.63h-2.3Z"/><path class="cls-8" d="M161.23,70.45h5c5.48,0,6.16,3.57,6.16,8.73s-.68,8.73-6.16,8.73h-5ZM164,85.81h2.3c2.3,0,3.25-1.52,3.25-6.63,0-4.92-.83-6.63-3.25-6.63H164Z"/><path class="cls-8" d="M175.8,70.45h9.44v2.35h-6.65v4.84h6.26V80h-6.26v5.58h6.85v2.35H175.8Z"/><path class="cls-8" d="M190.69,82.5v.44c0,2.13.93,3.21,2.86,3.21a2.48,2.48,0,0,0,2.64-2.54c0-1.83-.93-2.64-2.49-3.11l-1.91-.66c-2.54-1-3.64-2.3-3.64-4.79,0-3.18,2.15-4.94,5.43-4.94,4.48,0,4.94,2.79,4.94,4.6v.39h-2.79v-.37c0-1.59-.71-2.52-2.45-2.52a2.23,2.23,0,0,0-2.35,2.52c0,1.49.76,2.25,2.62,3l1.88.68c2.47.88,3.55,2.23,3.55,4.62,0,3.72-2.25,5.26-5.77,5.26-4.33,0-5.31-2.89-5.31-5.33V82.5Z"/><path class="cls-8" d="M202.09,70.45h2.79V87.91h-2.79Z"/><path class="cls-8" d="M217.25,85.88h0a3.65,3.65,0,0,1-3.81,2.37c-3.82,0-5.19-2.84-5.19-9.07S210,70.1,214,70.1a4.75,4.75,0,0,1,5.11,5v.32h-2.64V75c0-1.3-.54-2.84-2.45-2.84s-3,1.32-3,6.9.93,7,2.81,7c2.13,0,2.91-1.52,2.91-5.33h-2.94v-2.1h5.58v9.2h-2.1Z"/><path class="cls-8" d="M222.73,70.45h3.4l5.06,13h0v-13h2.64V87.91h-3.4l-5.06-13.35h0V87.91h-2.64Z"/><path class="cls-8" d="M237.74,70.45h9.44v2.35h-6.65v4.84h6.26V80h-6.26v5.58h6.85v2.35h-9.64Z"/><path class="cls-8" d="M250.48,70.45h6.16c2.45,0,4.43,1.22,4.43,4.5,0,2.25-1,4-2.91,4.28v0c1.74.17,2.64,1.13,2.74,3.57,0,1.13,0,2.5.1,3.55a1.81,1.81,0,0,0,.83,1.52h-3.15a2.93,2.93,0,0,1-.46-1.54c-.1-1.05-.07-2-.12-3.3,0-1.91-.64-2.74-2.54-2.74h-2.28v7.58h-2.79Zm5,7.78a2.57,2.57,0,0,0,2.79-2.84c0-1.86-.81-2.84-2.64-2.84h-2.37v5.67Z"/><path class="cls-8" d="M276.11,74.82a4.35,4.35,0,1,1-4.35,4.35A4.36,4.36,0,0,1,276.11,74.82Z"/><path class="cls-8" d="M300.13,85.88h0a3.66,3.66,0,0,1-3.82,2.37c-3.82,0-5.19-2.84-5.19-9.07s1.76-9.08,5.8-9.08a4.75,4.75,0,0,1,5.11,5v.32h-2.64V75c0-1.3-.54-2.84-2.45-2.84s-3,1.32-3,6.9.93,7,2.81,7c2.13,0,2.91-1.52,2.91-5.33h-2.94v-2.1h5.58v9.2h-2.1Z"/><path class="cls-8" d="M305.6,70.45h6.16c2.45,0,4.43,1.22,4.43,4.5,0,2.25-1,4-2.91,4.28v0c1.74.17,2.64,1.13,2.74,3.57,0,1.13,0,2.5.1,3.55a1.81,1.81,0,0,0,.83,1.52H313.8a2.93,2.93,0,0,1-.46-1.54c-.1-1.05-.07-2-.12-3.3,0-1.91-.64-2.74-2.54-2.74h-2.28v7.58H305.6Zm5,7.78a2.57,2.57,0,0,0,2.79-2.84c0-1.86-.81-2.84-2.64-2.84h-2.37v5.67Z"/><path class="cls-8" d="M323,70.45h3.57l4.6,17.46h-2.91l-1.08-4.28h-5.11L321,87.91H318Zm3.72,11-2-8.61h0L322.6,81.4Z"/><path class="cls-8" d="M333.38,70.45h5.53c3.35,0,4.82,2.1,4.82,5.09s-1.83,5.16-5.11,5.16h-2.45v7.22h-2.79Zm2.79,8.14h2c1.49,0,2.79-.81,2.79-3,0-1.88-.76-3-3-3h-1.79Z"/><path class="cls-8" d="M346.59,70.45h2.79v7h5.14v-7h2.79V87.91h-2.79V79.79h-5.14v8.12h-2.79Z"/><path class="cls-8" d="M361,70.45h2.79V87.91H361Z"/><path class="cls-8" d="M378.31,81.65V82c0,3.16-1.27,6.24-5.38,6.24-4.4,0-5.77-2.84-5.77-9.07s1.37-9.08,5.8-9.08c5,0,5.26,3.67,5.26,5.48v.32h-2.79v-.29c0-1.61-.49-3.47-2.5-3.4s-3,1.27-3,6.9.93,7,3,7c2.32,0,2.59-2.59,2.59-4.21v-.29Z"/><path class="cls-8" d="M388.09,70.45h5c5.48,0,6.16,3.57,6.16,8.73s-.68,8.73-6.16,8.73h-5Zm2.79,15.36h2.3c2.3,0,3.25-1.52,3.25-6.63,0-4.92-.83-6.63-3.25-6.63h-2.3Z"/><path class="cls-8" d="M402.66,70.45h9.44v2.35h-6.65v4.84h6.26V80h-6.26v5.58h6.85v2.35h-9.64Z"/><path class="cls-8" d="M417.55,82.5v.44c0,2.13.93,3.21,2.86,3.21a2.48,2.48,0,0,0,2.64-2.54c0-1.83-.93-2.64-2.49-3.11l-1.91-.66c-2.54-1-3.64-2.3-3.64-4.79,0-3.18,2.15-4.94,5.43-4.94,4.48,0,4.94,2.79,4.94,4.6v.39h-2.79v-.37c0-1.59-.71-2.52-2.45-2.52a2.23,2.23,0,0,0-2.35,2.52c0,1.49.76,2.25,2.62,3l1.88.68c2.47.88,3.55,2.23,3.55,4.62,0,3.72-2.25,5.26-5.77,5.26-4.33,0-5.31-2.89-5.31-5.33V82.5Z"/><path class="cls-8" d="M428.95,70.45h2.79V87.91h-2.79Z"/><path class="cls-8" d="M444.11,85.88h0a3.65,3.65,0,0,1-3.81,2.37c-3.82,0-5.19-2.84-5.19-9.07s1.76-9.08,5.8-9.08a4.75,4.75,0,0,1,5.11,5v.32h-2.64V75c0-1.3-.54-2.84-2.45-2.84s-3,1.32-3,6.9.93,7,2.81,7c2.13,0,2.91-1.52,2.91-5.33h-2.94v-2.1h5.58v9.2h-2.1Z"/><path class="cls-8" d="M449.59,70.45H453l5.06,13h0v-13h2.64V87.91h-3.4l-5.06-13.35h0V87.91h-2.64Z"/><path class="cls-8" d="M464.6,70.45H474v2.35h-6.65v4.84h6.26V80h-6.26v5.58h6.85v2.35H464.6Z"/><path class="cls-8" d="M477.34,70.45h6.16c2.45,0,4.43,1.22,4.43,4.5,0,2.25-1,4-2.91,4.28v0c1.74.17,2.64,1.13,2.74,3.57,0,1.13,0,2.5.1,3.55a1.81,1.81,0,0,0,.83,1.52h-3.15a2.93,2.93,0,0,1-.46-1.54c-.1-1.05-.07-2-.12-3.3,0-1.91-.64-2.74-2.54-2.74h-2.28v7.58h-2.79Zm5,7.78a2.57,2.57,0,0,0,2.79-2.84c0-1.86-.81-2.84-2.64-2.84h-2.37v5.67Z"/><path class="cls-8" d="M503,74.82a4.35,4.35,0,1,1-4.35,4.35A4.36,4.36,0,0,1,503,74.82Z"/><path class="cls-8" d="M516.15,70.45H519L521.26,84h0l2.3-13.57h2.94l2.35,13.65h0l2.28-13.65H534l-3.47,17.46h-3.23L525,74.75h0l-2.22,13.16h-3.23Z"/><path class="cls-8" d="M536.55,70.45H546v2.35h-6.65v4.84h6.26V80h-6.26v5.58h6.85v2.35h-9.64Z"/><path class="cls-8" d="M549.29,70.45h5.65c2.59,0,4.7,1.15,4.7,4.23,0,2.13-.83,3.42-2.57,4v0c1.91.34,3.13,1.49,3.13,4.45s-2.1,4.77-5.38,4.77h-5.53Zm5,7.36A2.46,2.46,0,0,0,556.84,75c0-2.08-1.25-2.49-2.81-2.49h-2v5.26Zm.56,8c1.66,0,2.57-1.08,2.57-3.08a2.66,2.66,0,0,0-2.74-3h-2.59v6Z"/><path class="cls-8" d="M570.24,70.45h5c5.48,0,6.16,3.57,6.16,8.73s-.69,8.73-6.16,8.73h-5ZM573,85.81h2.3c2.3,0,3.25-1.52,3.25-6.63,0-4.92-.83-6.63-3.25-6.63H573Z"/><path class="cls-8" d="M584.82,70.45h9.44v2.35h-6.65v4.84h6.26V80h-6.26v5.58h6.85v2.35h-9.64Z"/><path class="cls-8" d="M596,70.45h3l3,13.94h0l3.13-13.94h3l-4.4,17.46h-3.55Z"/><path class="cls-8" d="M610.3,70.45h9.44v2.35h-6.65v4.84h6.26V80h-6.26v5.58h6.85v2.35H610.3Z"/><path class="cls-8" d="M622.72,70.45h2.79V85.56h6.75v2.35h-9.54Z"/><path class="cls-8" d="M634.46,79.18c0-6.24,1.76-9.08,5.77-9.08S646,72.94,646,79.18s-1.76,9.07-5.77,9.07S634.46,85.41,634.46,79.18Zm8.76-.07c0-5.87-1.32-6.9-3-6.9s-3,1-3,6.9,1.32,7,3,7S643.22,85.12,643.22,79.1Z"/><path class="cls-8" d="M649.45,70.45H655c3.35,0,4.82,2.1,4.82,5.09s-1.83,5.16-5.11,5.16h-2.45v7.22h-2.79Zm2.79,8.14h2c1.49,0,2.79-.81,2.79-3,0-1.88-.76-3-3-3h-1.79Z"/><path class="cls-8" d="M662.65,70.45h9.44v2.35h-6.65v4.84h6.26V80h-6.26v5.58h6.85v2.35h-9.64Z"/><path class="cls-8" d="M675.4,70.45h6.16c2.45,0,4.43,1.22,4.43,4.5,0,2.25-1,4-2.91,4.28v0c1.74.17,2.64,1.13,2.74,3.57,0,1.13,0,2.5.1,3.55a1.81,1.81,0,0,0,.83,1.52h-3.16a3,3,0,0,1-.46-1.54c-.1-1.05-.07-2-.12-3.3,0-1.91-.64-2.74-2.54-2.74h-2.27v7.58H675.4Zm5,7.78a2.57,2.57,0,0,0,2.79-2.84c0-1.86-.81-2.84-2.64-2.84h-2.37v5.67Z"/><path class="cls-8" d="M106.67,70.45h2.81L111.78,84h0l2.3-13.57h2.94l2.35,13.65h0l2.27-13.65h2.76L121,87.91H117.8l-2.25-13.16h0l-2.23,13.16H110Z"/><path class="cls-8" d="M127.06,70.45h9.44v2.35h-6.65v4.84h6.26V80h-6.26v5.58h6.85v2.35h-9.64Z"/><path class="cls-8" d="M139.8,70.45h5c5.48,0,6.16,3.57,6.16,8.73s-.68,8.73-6.16,8.73h-5Zm2.79,15.36h2.3c2.3,0,3.25-1.52,3.25-6.63,0-4.92-.83-6.63-3.25-6.63h-2.3Z"/><path class="cls-8" d="M161.23,70.45h5c5.48,0,6.16,3.57,6.16,8.73s-.68,8.73-6.16,8.73h-5ZM164,85.81h2.3c2.3,0,3.25-1.52,3.25-6.63,0-4.92-.83-6.63-3.25-6.63H164Z"/><path class="cls-8" d="M175.8,70.45h9.44v2.35h-6.65v4.84h6.26V80h-6.26v5.58h6.85v2.35H175.8Z"/><path class="cls-8" d="M190.69,82.5v.44c0,2.13.93,3.21,2.86,3.21a2.48,2.48,0,0,0,2.64-2.54c0-1.83-.93-2.64-2.49-3.11l-1.91-.66c-2.54-1-3.64-2.3-3.64-4.79,0-3.18,2.15-4.94,5.43-4.94,4.48,0,4.94,2.79,4.94,4.6v.39h-2.79v-.37c0-1.59-.71-2.52-2.45-2.52a2.23,2.23,0,0,0-2.35,2.52c0,1.49.76,2.25,2.62,3l1.88.68c2.47.88,3.55,2.23,3.55,4.62,0,3.72-2.25,5.26-5.77,5.26-4.33,0-5.31-2.89-5.31-5.33V82.5Z"/><path class="cls-8" d="M202.09,70.45h2.79V87.91h-2.79Z"/><path class="cls-8" d="M217.25,85.88h0a3.65,3.65,0,0,1-3.81,2.37c-3.82,0-5.19-2.84-5.19-9.07S210,70.1,214,70.1a4.75,4.75,0,0,1,5.11,5v.32h-2.64V75c0-1.3-.54-2.84-2.45-2.84s-3,1.32-3,6.9.93,7,2.81,7c2.13,0,2.91-1.52,2.91-5.33h-2.94v-2.1h5.58v9.2h-2.1Z"/><path class="cls-8" d="M222.73,70.45h3.4l5.06,13h0v-13h2.64V87.91h-3.4l-5.06-13.35h0V87.91h-2.64Z"/><path class="cls-8" d="M237.74,70.45h9.44v2.35h-6.65v4.84h6.26V80h-6.26v5.58h6.85v2.35h-9.64Z"/><path class="cls-8" d="M250.48,70.45h6.16c2.45,0,4.43,1.22,4.43,4.5,0,2.25-1,4-2.91,4.28v0c1.74.17,2.64,1.13,2.74,3.57,0,1.13,0,2.5.1,3.55a1.81,1.81,0,0,0,.83,1.52h-3.15a2.93,2.93,0,0,1-.46-1.54c-.1-1.05-.07-2-.12-3.3,0-1.91-.64-2.74-2.54-2.74h-2.28v7.58h-2.79Zm5,7.78a2.57,2.57,0,0,0,2.79-2.84c0-1.86-.81-2.84-2.64-2.84h-2.37v5.67Z"/><path class="cls-8" d="M276.11,74.82a4.35,4.35,0,1,1-4.35,4.35A4.36,4.36,0,0,1,276.11,74.82Z"/><path class="cls-8" d="M300.13,85.88h0a3.66,3.66,0,0,1-3.82,2.37c-3.82,0-5.19-2.84-5.19-9.07s1.76-9.08,5.8-9.08a4.75,4.75,0,0,1,5.11,5v.32h-2.64V75c0-1.3-.54-2.84-2.45-2.84s-3,1.32-3,6.9.93,7,2.81,7c2.13,0,2.91-1.52,2.91-5.33h-2.94v-2.1h5.58v9.2h-2.1Z"/><path class="cls-8" d="M305.6,70.45h6.16c2.45,0,4.43,1.22,4.43,4.5,0,2.25-1,4-2.91,4.28v0c1.74.17,2.64,1.13,2.74,3.57,0,1.13,0,2.5.1,3.55a1.81,1.81,0,0,0,.83,1.52H313.8a2.93,2.93,0,0,1-.46-1.54c-.1-1.05-.07-2-.12-3.3,0-1.91-.64-2.74-2.54-2.74h-2.28v7.58H305.6Zm5,7.78a2.57,2.57,0,0,0,2.79-2.84c0-1.86-.81-2.84-2.64-2.84h-2.37v5.67Z"/><path class="cls-8" d="M323,70.45h3.57l4.6,17.46h-2.91l-1.08-4.28h-5.11L321,87.91H318Zm3.72,11-2-8.61h0L322.6,81.4Z"/><path class="cls-8" d="M333.38,70.45h5.53c3.35,0,4.82,2.1,4.82,5.09s-1.83,5.16-5.11,5.16h-2.45v7.22h-2.79Zm2.79,8.14h2c1.49,0,2.79-.81,2.79-3,0-1.88-.76-3-3-3h-1.79Z"/><path class="cls-8" d="M346.59,70.45h2.79v7h5.14v-7h2.79V87.91h-2.79V79.79h-5.14v8.12h-2.79Z"/><path class="cls-8" d="M361,70.45h2.79V87.91H361Z"/><path class="cls-8" d="M378.31,81.65V82c0,3.16-1.27,6.24-5.38,6.24-4.4,0-5.77-2.84-5.77-9.07s1.37-9.08,5.8-9.08c5,0,5.26,3.67,5.26,5.48v.32h-2.79v-.29c0-1.61-.49-3.47-2.5-3.4s-3,1.27-3,6.9.93,7,3,7c2.32,0,2.59-2.59,2.59-4.21v-.29Z"/><path class="cls-8" d="M388.09,70.45h5c5.48,0,6.16,3.57,6.16,8.73s-.68,8.73-6.16,8.73h-5Zm2.79,15.36h2.3c2.3,0,3.25-1.52,3.25-6.63,0-4.92-.83-6.63-3.25-6.63h-2.3Z"/><path class="cls-8" d="M402.66,70.45h9.44v2.35h-6.65v4.84h6.26V80h-6.26v5.58h6.85v2.35h-9.64Z"/><path class="cls-8" d="M417.55,82.5v.44c0,2.13.93,3.21,2.86,3.21a2.48,2.48,0,0,0,2.64-2.54c0-1.83-.93-2.64-2.49-3.11l-1.91-.66c-2.54-1-3.64-2.3-3.64-4.79,0-3.18,2.15-4.94,5.43-4.94,4.48,0,4.94,2.79,4.94,4.6v.39h-2.79v-.37c0-1.59-.71-2.52-2.45-2.52a2.23,2.23,0,0,0-2.35,2.52c0,1.49.76,2.25,2.62,3l1.88.68c2.47.88,3.55,2.23,3.55,4.62,0,3.72-2.25,5.26-5.77,5.26-4.33,0-5.31-2.89-5.31-5.33V82.5Z"/><path class="cls-8" d="M428.95,70.45h2.79V87.91h-2.79Z"/><path class="cls-8" d="M444.11,85.88h0a3.65,3.65,0,0,1-3.81,2.37c-3.82,0-5.19-2.84-5.19-9.07s1.76-9.08,5.8-9.08a4.75,4.75,0,0,1,5.11,5v.32h-2.64V75c0-1.3-.54-2.84-2.45-2.84s-3,1.32-3,6.9.93,7,2.81,7c2.13,0,2.91-1.52,2.91-5.33h-2.94v-2.1h5.58v9.2h-2.1Z"/><path class="cls-8" d="M449.59,70.45H453l5.06,13h0v-13h2.64V87.91h-3.4l-5.06-13.35h0V87.91h-2.64Z"/><path class="cls-8" d="M464.6,70.45H474v2.35h-6.65v4.84h6.26V80h-6.26v5.58h6.85v2.35H464.6Z"/><path class="cls-8" d="M477.34,70.45h6.16c2.45,0,4.43,1.22,4.43,4.5,0,2.25-1,4-2.91,4.28v0c1.74.17,2.64,1.13,2.74,3.57,0,1.13,0,2.5.1,3.55a1.81,1.81,0,0,0,.83,1.52h-3.15a2.93,2.93,0,0,1-.46-1.54c-.1-1.05-.07-2-.12-3.3,0-1.91-.64-2.74-2.54-2.74h-2.28v7.58h-2.79Zm5,7.78a2.57,2.57,0,0,0,2.79-2.84c0-1.86-.81-2.84-2.64-2.84h-2.37v5.67Z"/><path class="cls-8" d="M503,74.82a4.35,4.35,0,1,1-4.35,4.35A4.36,4.36,0,0,1,503,74.82Z"/><path class="cls-8" d="M516.15,70.45H519L521.26,84h0l2.3-13.57h2.94l2.35,13.65h0l2.28-13.65H534l-3.47,17.46h-3.23L525,74.75h0l-2.22,13.16h-3.23Z"/><path class="cls-8" d="M536.55,70.45H546v2.35h-6.65v4.84h6.26V80h-6.26v5.58h6.85v2.35h-9.64Z"/><path class="cls-8" d="M549.29,70.45h5.65c2.59,0,4.7,1.15,4.7,4.23,0,2.13-.83,3.42-2.57,4v0c1.91.34,3.13,1.49,3.13,4.45s-2.1,4.77-5.38,4.77h-5.53Zm5,7.36A2.46,2.46,0,0,0,556.84,75c0-2.08-1.25-2.49-2.81-2.49h-2v5.26Zm.56,8c1.66,0,2.57-1.08,2.57-3.08a2.66,2.66,0,0,0-2.74-3h-2.59v6Z"/><path class="cls-8" d="M570.24,70.45h5c5.48,0,6.16,3.57,6.16,8.73s-.69,8.73-6.16,8.73h-5ZM573,85.81h2.3c2.3,0,3.25-1.52,3.25-6.63,0-4.92-.83-6.63-3.25-6.63H573Z"/><path class="cls-8" d="M584.82,70.45h9.44v2.35h-6.65v4.84h6.26V80h-6.26v5.58h6.85v2.35h-9.64Z"/><path class="cls-8" d="M596,70.45h3l3,13.94h0l3.13-13.94h3l-4.4,17.46h-3.55Z"/><path class="cls-8" d="M610.3,70.45h9.44v2.35h-6.65v4.84h6.26V80h-6.26v5.58h6.85v2.35H610.3Z"/><path class="cls-8" d="M622.72,70.45h2.79V85.56h6.75v2.35h-9.54Z"/><path class="cls-8" d="M634.46,79.18c0-6.24,1.76-9.08,5.77-9.08S646,72.94,646,79.18s-1.76,9.07-5.77,9.07S634.46,85.41,634.46,79.18Zm8.76-.07c0-5.87-1.32-6.9-3-6.9s-3,1-3,6.9,1.32,7,3,7S643.22,85.12,643.22,79.1Z"/><path class="cls-8" d="M649.45,70.45H655c3.35,0,4.82,2.1,4.82,5.09s-1.83,5.16-5.11,5.16h-2.45v7.22h-2.79Zm2.79,8.14h2c1.49,0,2.79-.81,2.79-3,0-1.88-.76-3-3-3h-1.79Z"/><path class="cls-8" d="M662.65,70.45h9.44v2.35h-6.65v4.84h6.26V80h-6.26v5.58h6.85v2.35h-9.64Z"/><path class="cls-8" d="M675.4,70.45h6.16c2.45,0,4.43,1.22,4.43,4.5,0,2.25-1,4-2.91,4.28v0c1.74.17,2.64,1.13,2.74,3.57,0,1.13,0,2.5.1,3.55a1.81,1.81,0,0,0,.83,1.52h-3.16a3,3,0,0,1-.46-1.54c-.1-1.05-.07-2-.12-3.3,0-1.91-.64-2.74-2.54-2.74h-2.27v7.58H675.4Zm5,7.78a2.57,2.57,0,0,0,2.79-2.84c0-1.86-.81-2.84-2.64-2.84h-2.37v5.67Z"/><path class="cls-8" d="M.13,23.62a21,21,0,0,1,21-21h0l38.49.12V23.85l-5.07.07L31.36,24A10.29,10.29,0,0,0,21.12,34.32v53H.13Z"/><path class="cls-8" d="M89.41,66.63a21,21,0,0,1-21,21h0l-38.49-.12V66.4L35,66.33l23.18-.11A10.29,10.29,0,0,0,68.41,55.93V3h21Z"/><path class="cls-8" d="M55.87,58H29.82V35.85a3.67,3.67,0,0,1,3.67-3.67H59.54V54.33A3.67,3.67,0,0,1,55.87,58Z"/><path class="cls-8" d="M.13,23.62a21,21,0,0,1,21-21h0l38.49.12V23.85l-5.07.07L31.36,24A10.29,10.29,0,0,0,21.12,34.32v53H.13Z"/><path class="cls-8" d="M89.41,66.63a21,21,0,0,1-21,21h0l-38.49-.12V66.4L35,66.33l23.18-.11A10.29,10.29,0,0,0,68.41,55.93V3h21Z"/><path class="cls-8" d="M55.87,58H29.82V35.85a3.67,3.67,0,0,1,3.67-3.67H59.54V54.33A3.67,3.67,0,0,1,55.87,58Z"/><path class="cls-8" d="M.13,23.62a21,21,0,0,1,21-21h0l38.49.12V23.85l-5.07.07L31.36,24A10.29,10.29,0,0,0,21.12,34.32v53H.13Z"/><path class="cls-8" d="M89.41,66.63a21,21,0,0,1-21,21h0l-38.49-.12V66.4L35,66.33l23.18-.11A10.29,10.29,0,0,0,68.41,55.93V3h21Z"/><path class="cls-8" d="M55.87,58H29.82V35.85a3.67,3.67,0,0,1,3.67-3.67H59.54V54.33A3.67,3.67,0,0,1,55.87,58Z"/></g></g></g></g></svg>